inDegrees=yes
name=ik_wink_l
DataType=double
version=3
OpenSimVersion=4.5
endheader
time	pelvis_tilt	pelvis_list	pelvis_rotation	pelvis_tx	pelvis_ty	pelvis_tz	hip_flexion_r	hip_adduction_r	hip_rotation_r	knee_angle_r	knee_angle_r_beta	ankle_angle_r	subtalar_angle_r	mtp_angle_r	hip_flexion_l	hip_adduction_l	hip_rotation_l	knee_angle_l	knee_angle_l_beta	ankle_angle_l	subtalar_angle_l	mtp_angle_l	lumbar_extension	lumbar_bending	lumbar_rotation	arm_flex_r	arm_add_r	arm_rot_r	elbow_flex_r	pro_sup_r	wrist_flex_r	wrist_dev_r	arm_flex_l	arm_add_l	arm_rot_l	elbow_flex_l	pro_sup_l	wrist_flex_l	wrist_dev_l
0	-1.190033816571457	27.17321714750818	0.9047917036816828	0	0.9399999999999999	0	45.03470491662443	-10.03347933042423	0	59.80279917379348	1.043755747491641	-5.011551393195016	0	0	45.03470491662443	-10.03347933042423	0	59.80279917379348	1.043755747491641	-5.011551393195016	0	0	1.839619071920288	23.67710545181884	0.3063786462810579	0	-14.78820479307941	0	74.83486841024944	44.92384521225962	0	-2.694034605743505e-36	-0.01448973524875943	-39.17381482175791	1.079948534418107	0.3457381297752949	44.92384521225962	0	-2.694034605743505e-36
1	-1.191010547744303	27.17357724124524	0.9049293467922008	0	0.9399999999999999	0	45.03470283690282	-10.03347231840369	0	59.80280844362914	1.043755909280794	-5.011548238081262	0	0	45.03470283690282	-10.03347231840369	0	59.80280844362914	1.043755909280794	-5.011548238081262	0	0	1.8383377888255	23.6776802936394	0.306000393868001	0	-14.78821128460848	0	74.83487831647129	44.92385783083199	0	8.383523533583808e-50	-0.01562549250376847	-39.17474513558699	1.080894992658011	0.345857104713938	44.92385783083199	0	8.383523533583808e-50
2	-1.191223807634027	27.1737251987527	0.9050654003544648	0	0.9399999999999999	0	45.03470082117276	-10.03346552362567	0	59.80281742812959	1.043756066089909	-5.011545181026674	0	0	45.03470082117276	-10.03346552362567	0	59.80281742812959	1.043756066089909	-5.011545181026674	0	0	1.837914140534829	23.67801349733342	0.3059721042615514	0	-14.78821757649382	0	74.83488791788578	44.92387005930892	0	0	-0.01598395777272335	-39.17539647274435	1.081080672581517	0.3459061684953024	44.92387005930892	0	0
3	-1.191223812207256	27.17360780384853	0.9050566489023369	0	0.9399999999999999	0	45.03469881603854	-10.03345876493159	0	59.80282636464494	1.043756222061525	-5.011542140363102	0	0	45.03469881603854	-10.03345876493159	0	59.80282636464494	1.043756222061525	-5.011542140363102	0	0	1.837799695186322	23.67806802122906	0.3059431138163425	0	-14.78822383505528	0	74.83489746882964	44.92388222321546	0	0	-0.01600749450070535	-39.17575387000934	1.081056405838037	0.3457765278910173	44.92388222321546	0	0
4	-1.191197230097764	27.17340649652841	0.9050379022823105	0	0.9399999999999999	0	45.03469680811221	-10.03345199764203	0	59.80283531353536	1.043756378249127	-5.011539096006682	0	0	45.03469680811221	-10.03345199764203	0	59.80283531353536	1.043756378249127	-5.011539096006682	0	0	1.83771880195782	23.67803753496712	0.305921083487855	0	-14.78823010241872	0	74.83490703307311	44.92389440305703	0	0	-0.01599775816583754	-39.17602445277127	1.081005560757178	0.3457618302826135	44.92389440305703	0	0
5	-1.106588145207382	27.25612554897032	1.030994420010524	0	0.9399999999999999	0	45.03469478302441	-10.03344523710824	0	59.80284442277406	1.043756537235335	-5.011536058782222	0	0	45.03469478302441	-10.03344523710824	0	59.80284442277406	1.043756537235335	-5.011536058782222	0	0	1.869317040989794	23.76561959722865	0.4313357765314586	0	-14.78823646488108	0	74.83491667906044	44.92390658789168	0	0	-0.03591333264984294	-39.27219217834791	0.9962372903691751	0.1380363825338199	44.92390658789168	0	0
6	-1.033163322879244	27.1418972646697	1.141670731900588	0	0.9399999999999999	0	45.03469281667045	-10.0334386882061	0	59.80285328372354	1.043756691888078	-5.011533118068869	0	0	45.03469281667045	-10.0334386882061	0	59.80285328372354	1.043756691888078	-5.011533118068869	0	0	1.892630269718516	23.65373947759144	0.5455245809265497	0	-14.78824265088861	0	74.83492604528406	44.92391839641071	0	0	-0.06154227717034209	-39.15306729522166	0.9241726993233134	0.1116213319500346	44.92391839641071	0	0
7	-0.6434268395888134	26.95469637331754	1.46788066799234	0	0.9399999999999999	0	45.0346253719061	-10.0332846408106	0	59.80323690057003	1.043763387265116	-5.011469733875873	0	0	45.0346253719061	-10.0332846408106	0	59.80323690057003	1.043763387265116	-5.011469733875873	0	0	2.155739296341107	23.47797184328679	0.95648672703103	0	-14.78849429703234	0	74.83524730074745	44.92421792101614	0	0	0.04762835933697496	-38.97633392533823	0.5349826593345424	0.06575396924451216	44.92421792101614	0	0
8	-0.3571259869890937	26.97622600067418	2.158242895064314	0	0.9399999999999999	0	45.0345410343346	-10.0330958609388	0	59.80371920601545	1.043771805083139	-5.01139258823465	0	0	45.0345410343346	-10.0330958609388	0	59.80371920601545	1.043771805083139	-5.01139258823465	0	0	2.121942464689486	23.53486830442313	1.575413540193004	0	-14.78881079424737	0	74.83564902065409	44.92458686274175	0	0	-0.252000754978108	-39.05395806619214	0.240147893483458	0.04460335762744592	44.92458686274175	0	0
9	0.2395634256651206	27.27200443902901	3.563431953144936	0	0.9399999999999999	0	45.0343699738048	-10.03271459413579	0	59.80469856128186	1.043788898057084	-5.011236964194722	0	0	45.0343699738048	-10.03271459413579	0	59.80469856128186	1.043788898057084	-5.011236964194722	0	0	2.077781648642577	23.91164401909108	2.83311784313097	0	-14.78945372233767	0	74.83646382262302	44.92533270201546	0	-1.115735389202827e-49	-0.8260595304507244	-39.50112997630501	-0.3798616842484263	0.01887915782211862	44.92533270201546	0	-1.115735389202827e-49
10	0.9792535986246517	27.77532233850625	5.134741659877287	0	0.9399999999999999	0	45.03419391300697	-10.03232434955143	0	59.80570643047154	1.043806488692874	-5.011077949448141	0	0	45.03419391300697	-10.03232434955143	0	59.80570643047154	1.043806488692874	-5.011077949448141	0	0	2.12173618276795	24.5048175824048	4.265400312014314	0	-14.79011656884846	0	74.83730244204885	44.92609712397966	0	3.48933476590408e-36	-1.369245131672394	-40.18467559677894	-1.150583241166844	0.01102222652398107	44.92609712397966	0	3.48933476590408e-36
11	1.657677850179902	28.52463066373391	6.735770593091241	0	0.9399999999999999	0	45.03407318859445	-10.03205911117566	0	59.80639738858024	1.043818548186864	-5.010970210691929	0	0	45.03407318859445	-10.03205911117566	0	59.80639738858024	1.043818548186864	-5.010970210691929	0	0	2.104913142812642	25.35097425128007	5.681822586185422	0	-14.79057211099471	0	74.83787748111179	44.9266178847222	0	0	-1.958086036952366	-41.1491004568427	-1.871918053053576	0.006224569443292999	44.9266178847222	0	0
12	2.453143845201605	29.77637300967173	8.765270012397599	0	0.9399999999999999	0	45.03394675108762	-10.03178299015763	0	59.80712133310031	1.043831183402341	-5.010858273880933	0	0	45.03394675108762	-10.03178299015763	0	59.80712133310031	1.043831183402341	-5.010858273880933	0	0	2.043477722270007	26.7412004208685	7.431400667548633	0	-14.79105004330166	0	74.83847973299412	44.92716082849681	0	0	-2.701035979328206	-42.73006966066821	-2.74022507909452	0.00430573888138895	44.92716082849681	0	0
13	2.883464408828772	30.93352656647603	10.52052674290238	0	0.9399999999999999	0	45.03380769139174	-10.03148183972794	0	59.80791838837652	1.043845094641231	-5.010736528870002	0	0	45.03380769139174	-10.03148183972794	0	59.80791838837652	1.043845094641231	-5.010736528870002	0	0	1.714468870623013	28.06259961163189	8.801010141045179	0	-14.79157696307888	0	74.83914210735162	44.92775423260822	0	2.694034605743505e-36	-3.562667687263509	-44.27916021627478	-3.215602111055591	0.003123445391079557	44.92775423260822	0	2.694034605743505e-36
14	3.401448754204492	32.25869375090114	12.09035330994193	0	0.9399999999999999	0	45.03367565152053	-10.03119683735561	0	59.80867468847867	1.043858294568147	-5.01062143119861	0	0	45.03367565152053	-10.03119683735561	0	59.80867468847867	1.043858294568147	-5.01062143119861	0	0	1.627829332908214	29.51649871277744	10.09800443835515	0	-14.79207777522269	0	74.83977104461432	44.92831626947893	0	5.38806921148701e-36	-4.09955025457058	-45.92580825937942	-3.844986174750237	0.002506741473551606	44.92831626947893	0	5.38806921148701e-36
15	3.781776326939266	33.60338303731123	13.46232114461158	0	0.9399999999999999	0	45.03367156413898	-10.03118378357839	0	59.80869307207776	1.043858615422479	-5.010615653791485	0	0	45.03367156413898	-10.03118378357839	0	59.80869307207776	1.043858615422479	-5.010615653791485	0	0	1.506427636582173	30.98485876546048	11.18707733649351	0	-14.79209076885196	0	74.83979051380562	44.92834006391655	0	8.44112802530683e-37	-4.578456944940925	-47.58286089554477	-4.340084254523656	0.002081966781313313	44.92834006391655	0	8.44112802530683e-37
16	4.261695470773726	34.97470261247241	14.45263033149375	0	0.9399999999999999	0	45.03366782077119	-10.03117182071529	0	59.80870990170504	1.043858909154887	-5.010610358382175	0	0	45.03366782077119	-10.03117182071529	0	59.80870990170504	1.043858909154887	-5.010610358382175	0	0	1.756633626923322	32.39427555965904	12.12368701426312	0	-14.79210266574229	0	74.83980834437583	44.92836186690196	0	0	-4.559366862974451	-49.07879135506609	-5.069884262978484	0.001823883726458757	44.92836186690196	0	0
17	4.914684602384326	36.05946539811231	15.46561864644032	0	0.9399999999999999	0	45.03354861187545	-10.03091554498285	0	59.80939249544192	1.043870822663049	-5.01050699247809	0	0	45.03354861187545	-10.03091554498285	0	59.80939249544192	1.043870822663049	-5.01050699247809	0	0	2.130874785455565	33.49526150940498	13.14295039359773	0	-14.79255535695581	0	74.84037616465193	44.92886774731063	0	5.309544423384537e-36	-4.499603222800222	-50.23538319003175	-5.850437737669784	0.001587656422249882	44.92886774731063	0	5.309544423384537e-36
18	5.278673253163158	36.90474304158918	16.56611805218629	0	0.9399999999999999	0	45.03354774145446	-10.03091287154797	0	59.80939652975935	1.043870893075171	-5.010505817712366	0	0	45.03354774145446	-10.03091287154797	0	59.80939652975935	1.043870893075171	-5.010505817712366	0	0	2.027585476265098	34.46077186253367	13.97141798784171	0	-14.79255818799943	0	74.84038031067799	44.92887265321294	0	1.062609288891777e-66	-4.92241846178814	-51.36978606436996	-6.117580882545638	0.001486702989029495	44.92887265321294	0	1.062609288891777e-66
19	5.16770692346722	37.44232492204858	16.89597266222396	0	0.9399999999999999	0	45.03354686418052	-10.03091018244376	0	59.80940060201333	1.043870964149411	-5.010504636525253	0	0	45.03354686418052	-10.03091018244376	0	59.80940060201333	1.043870964149411	-5.010504636525253	0	0	1.824119424892409	35.09733839171823	14.11063555511557	0	-14.79256104447687	0	74.84038448934621	44.92887758963465	0	0	-5.086510075644492	-52.13091445730282	-6.117492634382844	0.001427435300162024	44.92887758963465	0	0
20	5.003380734627362	37.98656499618436	17.38917694461623	0	0.9399999999999999	0	45.03354589133909	-10.03090719100032	0	59.80940510683254	1.043871042773339	-5.010503321749709	0	0	45.03354589133909	-10.03090719100032	0	59.80940510683254	1.043871042773339	-5.010503321749709	0	0	1.434913604049896	35.79586842414499	14.27587363022421	0	-14.79256420656617	0	74.84038912322559	44.9288830780241	0	-1.495489624216698e-51	-5.473443263609291	-53.01728034297123	-5.961438787644206	0.001389714324864669	44.9288830780241	0	-1.495489624216698e-51
